<?xml version="1.0" encoding="UTF-8"?>
<svg enable-background="new 0 0 427.8 287.7" version="1.1" viewBox="0 0 427.8 287.7" xml:space="preserve" xmlns="http://www.w3.org/2000/svg">
<style type="text/css">
	.st0{fill:#FFFFFF;}
	.st1{fill:#7CAF01;}
	.st2{fill:#DEDD4A;}
	.st3{enable-background:new    ;}
	.st4{fill:#3C5177;}
	.st5{fill:#50659D;}
	.st6{fill:#455A89;}
	.st7{opacity:0.6;fill:#34B3F5;}
	.st8{opacity:5.000000e-02;}
	.st9{opacity:0.2;}
	.st10{fill:#34B3F5;}
	.st11{opacity:0.1;}
	.st12{opacity:0.5;}
	.st13{fill:#FFC50A;}
	.st14{fill:#EAE4C5;}
	.st15{opacity:0.4;fill:#34B3F5;}
	.st16{fill:#FFF9E9;}
	.st17{opacity:0.4;fill:url(#h);}
	.st18{opacity:0.4;fill:#FFFFFF;}
	.st19{opacity:0.4;fill:url(#g);}
	.st20{opacity:0.4;fill:url(#f);}
	.st21{opacity:0.4;fill:url(#e);}
	.st22{opacity:0.4;fill:url(#d);}
	.st23{opacity:0.4;fill:url(#c);}
	.st24{opacity:0.4;fill:url(#b);}
	.st25{opacity:0.4;fill:url(#a);}
	.st26{opacity:0.2;fill:#34B3F5;}
	.st27{opacity:0.4;fill:url(#SVGID_9_);}
	.st28{opacity:0.4;fill:url(#SVGID_10_);}
	.st29{opacity:0.4;fill:url(#SVGID_11_);}
	.st30{opacity:0.4;fill:url(#SVGID_12_);}
	.st31{opacity:0.4;fill:url(#SVGID_13_);}
	.st32{opacity:0.4;fill:url(#SVGID_14_);}
	.st33{opacity:0.4;fill:url(#SVGID_15_);}
	.st34{opacity:0.4;fill:url(#SVGID_16_);}
</style>
<path class="st0" d="M414.4,102.2c11.2,6.5,11.3,17,0.1,23.5L158.8,274.2c-11.1,6.5-29.3,6.5-40.5,0L13.4,213.6  c-11.2-6.5-11.3-17-0.1-23.5L269,41.6c11.1-6.5,29.3-6.5,40.5,0L414.4,102.2z"/>
	<path class="st1" d="m301.9 106.8c-7.9-4.6-11.8-10.8-10.9-17.2l40.5 23.4c-10.9 0.6-21.8-1.7-29.6-6.2z"/>
	<polygon class="st2" points="120.1 240.4 95.6 254.6 92.8 253 114.6 240.3 71.9 215.7 50.2 228.3 47.4 226.7 71.9 212.5"/>
	<path class="st2" d="m140.8 228.5l15.5 8.9-45 26.2-2.9-1.7 42.1-24.5-73.6-42.4-42.1 24.5-2.9-1.7 45-26.2 15.5 8.9c13.4-1.3 27 1.2 36.7 6.8 9.6 5.5 13.9 13.4 11.7 21.2zm-44.5-25.7l40.5 23.4c0.9-6.3-3.1-12.6-10.9-17.1-7.9-4.6-18.7-6.9-29.6-6.3"/>
			<path class="st2" d="m393 96.4l2.9 1.7-45 26.2-15.5-8.9c-13.4 1.3-27-1.2-36.7-6.8s-14-13.5-11.8-21.2l-15.5-8.9 45-26.2 2.9 1.7-42.1 24.5 73.5 42.4 42.3-24.5zm-91.1 10.4c7.9 4.5 18.7 6.8 29.6 6.3l-40.5-23.5c-0.9 6.4 3 12.6 10.9 17.2"/>
			<path class="st2" d="m247.3 138.5c-18-10.4-47-10.7-65.5-0.8l-2.5-1.4c19.9-10.7 51.1-10.4 70.5 0.8s20 29.3 1.7 40.8l-2.5-1.4c16.9-10.8 16.4-27.6-1.7-38z"/>
			<path class="st1" d="m180.5 177.3c-18-10.4-18.6-27.2-1.6-38l67.2 38.8c-18.6 9.9-47.6 9.7-65.6-0.8z"/>
		<path class="st1" d="m125.9 209c7.9 4.5 11.8 10.8 10.9 17.1l-40.5-23.4c10.9-0.5 21.7 1.8 29.6 6.3z"/>
			<path class="st1" d="m414.3 102.2l-104.8-60.6c-11.2-6.5-29.3-6.5-40.5 0l-255.7 148.6c-11.1 6.5-11.1 17 0.1 23.5l104.9 60.6c11.2 6.5 29.3 6.5 40.5 0l255.7-148.6c11.1-6.5 11.1-17-0.2-23.5zm-79.4-39.3l-21.7 12.6 42.7 24.6 21.7-12.6 2.8 1.6-24.5 14.2-48.2-27.8 24.5-14.2 2.7 1.6m-242.1 190.1l21.7-12.6-42.7-24.6-21.7 12.6-2.8-1.6 24.5-14.2 48.2 27.8-24.5 14.2-2.7-1.6m18.4 10.6l-2.9-1.7 42.1-24.5-73.5-42.4-42.1 24.5-2.9-1.7 45-26.2 15.5 8.9c13.4-1.3 27 1.2 36.7 6.8s14 13.5 11.8 21.2l15.5 8.9-45.2 26.2m167.2-66.8l-29.9-17.3c-19.9 10.7-51.1 10.4-70.5-0.8s-20-29.3-1.7-40.8l-29.9-17.3 2.9-1.7 29.9 17.3c19.9-10.7 51.1-10.4 70.5 0.8s20 29.3 1.7 40.8l29.9 17.3-2.9 1.7m72.5-72.5l-15.5-8.9c-13.4 1.3-27-1.2-36.7-6.8s-14-13.5-11.8-21.2l-15.5-8.9 45-26.2 2.9 1.7-42.1 24.5 73.5 42.4 42.3-24.5 2.9 1.7-45 26.2"/>
			<polygon class="st2" points="380.4 89.1 355.9 103.3 307.7 75.5 332.2 61.3 334.9 62.9 313.2 75.5 355.9 100.1 377.6 87.5"/>
			<path class="st1" d="m247.3 138.5c18 10.4 18.6 27.2 1.6 38l-67.2-38.8c18.6-9.9 47.6-9.6 65.6 0.8z"/>
			<path class="st2" d="m177.8 137.1c0.5-0.3 1-0.6 1.5-0.8l-29.9-17.3-2.9 1.7 29.9 17.3c0.4-0.4 0.9-0.6 1.4-0.9z"/>
			<path class="st2" d="m281.3 195.2l-29.9-17.3-2.5-1.4c-0.5 0.3-0.9 0.6-1.4 0.9s-1 0.6-1.5 0.8c-18.5 9.9-47.5 9.6-65.6-0.8-18-10.4-18.6-27.2-1.6-38l67.2 38.8c0.5-0.3 1-0.5 1.5-0.8s1-0.6 1.4-0.9l-67.2-38.8-2.5-1.4c-0.5 0.3-1 0.5-1.5 0.8s-1 0.6-1.4 0.9c-18.3 11.5-17.8 29.6 1.7 40.8s50.6 11.5 70.5 0.8l29.9 17.3 2.9-1.7z"/>
<g class="st3">
		<path class="st4" d="m365.1 73c0.8 0.4 0.8 1.2 0 1.6-0.8 0.5-2.1 0.5-2.8 0l-15.6-9c-0.8-0.4-0.8-1.2 0-1.6s2-0.4 2.8 0l15.6 9z"/>
		<path class="st4" d="m373.4 76.9c1.2 0.7 1.2 1.8 0 2.5s-3.1 0.7-4.3 0-1.2-1.8 0-2.5 3.1-0.7 4.3 0z"/>
		<path class="st5" d="m419.1 94.7c11.5 6.6 11.5 17.4 0.1 24l-261.7 152.2c-11.4 6.6-30 6.6-41.5 0l-107.4-62c-11.5-6.6-11.5-17.4-0.1-24l261.8-152.2c11.4-6.6 30-6.6 41.5 0l16.8 9.7 73.7 42.6 16.8 9.7zm-268.5 170.3l258.5-150.2c7.2-4.2 7.2-11-0.1-15.2l-15.9-9.2-3.1 1.8c-3.7 2.2-9.8 2.2-13.5 0l-60.2-34.8c-3.7-2.2-3.8-5.7 0-7.8l3.1-1.8-15.9-9.2c-7.3-4.2-19.1-4.2-26.3 0l-258.5 150.2c-7.2 4.2-7.2 11 0.1 15.2l105.5 61c7.3 4.2 19.1 4.2 26.3 0m198.9-201.1c-0.8-0.4-2.1-0.5-2.8 0-0.8 0.5-0.8 1.2 0 1.6l15.6 9c0.8 0.4 2.1 0.4 2.8 0 0.8-0.4 0.8-1.2 0-1.6l-15.6-9m23.9 13c-1.2-0.7-3.1-0.7-4.2 0-1.2 0.7-1.2 1.8 0 2.5s3.1 0.7 4.3 0c1.1-0.7 1.1-1.8-0.1-2.5"/>
			<path class="st6" d="m303.5 38.6v3.2c-7.3-4.2-19.1-4.2-26.3 0v-3.2c7.2-4.2 19-4.2 26.3 0z"/>
			<polygon class="st6" points="319.4 47.8 319.4 50.9 303.5 41.7 303.5 38.6"/>
			<path class="st6" d="m313.4 56.6v-3.2c0 1.4 0.9 2.9 2.8 3.9v3.2c-1.8-1-2.8-2.5-2.8-3.9z"/>
			<polygon class="st6" points="393.2 90.4 393.1 93.5 390 95.3 390 92.2"/>
			<polygon class="st6" points="376.5 92.2 376.5 95.3 316.3 60.6 316.3 57.4"/>
			<path class="st6" d="m390 92.2v3.2c-3.7 2.2-9.8 2.2-13.5 0v-3.2c3.8 2.1 9.8 2.1 13.5 0z"/>
			<polygon class="st6" points="409.1 99.5 409 102.7 393.1 93.5 393.2 90.4"/>
			<path class="st6" d="m414.5 107.2v3.2c0-2.8-1.8-5.6-5.5-7.7v-3.2c3.7 2.1 5.6 4.9 5.5 7.7z"/>
			<path class="st6" d="m13.2 199.5v-3.2c0-2.7 1.8-5.5 5.4-7.6v3.2c-3.6 2.2-5.4 4.9-5.4 7.6z"/>
			<polygon class="st6" points="277.2 38.6 277.2 41.7 18.6 192 18.7 188.8"/>
			<path class="st5" d="m427.8 106.8v11.9c0 4.3-2.9 8.6-8.5 11.9v-11.9c5.6-3.2 8.5-7.6 8.5-11.9z"/>
			<path class="st4" d="m0 208.7v-11.9c0 4.4 2.9 8.8 8.7 12.1v11.9c-5.8-3.4-8.7-7.7-8.7-12.1z"/>
			<polygon class="st6" points="419.3 118.7 419.2 130.7 157.5 282.8 157.5 270.9"/>
			<polygon class="st4" points="116.1 270.9 116 282.8 8.7 220.8 8.7 208.9"/>
			<path class="st4" d="m157.5 270.9v11.9c-11.4 6.6-30 6.6-41.5 0v-11.9c11.6 6.6 30.1 6.6 41.5 0z"/>
</g>
<g class="st3">
		<path class="st5" d="m378.5 148.4v4.8c0 0.5-0.3 1-1 1.4v-4.8c0.7-0.4 1-0.9 1-1.4z"/>
		<polygon class="st6" points="377.5 149.8 377.5 154.5 349.3 170.9 349.3 166.2"/>
		<polygon class="st4" points="344.6 166.2 344.5 170.9 343.8 170.5 343.9 165.7"/>
		<path class="st4" d="m349.3 166.2v4.8c-1.3 0.8-3.5 0.8-4.8 0v-4.8c1.4 0.7 3.5 0.7 4.8 0z"/>
		<path class="st5" d="m377.5 147c1.3 0.8 1.3 2 0 2.8l-28.2 16.4c-1.3 0.8-3.5 0.8-4.8 0l-0.7-0.4 32.9-19.1 0.8 0.3z"/>
</g>
	<path class="st7" d="m291.1 40.8c0-1.9-0.6-3.3-1.6-3.9l-4.5-2.9c-1-0.6-2.4-0.6-3.9 0.4l-35.1 22.8v9.2l4.5 2.9 26.4-17.1 0.1 48.2c0 1.7-1 3.7-2.3 4.5l-28.5 18.5v9.2l4.5 2.9 35.2-22.8c3-1.9 5.4-6.7 5.4-10.5l-0.2-61.4z"/>
	<path class="st7" d="m265.5 32.7c0-7.6-5.1-15.3-15.2-21.1-20.2-11.7-52.8-11.7-72.9 0-10 5.8-15 13.5-15 21.1v125.7c0 7.6 5.1 15.3 15.2 21.1 20.2 11.7 52.8 11.7 72.9 0 10-5.8 15-13.5 15-21.1v-125.7z"/>
	<path class="st8" d="m265.5 147.1c-0.4-7.4-5.5-14.6-15.2-20.3-20.2-11.7-52.8-11.7-72.9 0-9.7 5.6-14.6 12.9-15 20.3v0.3 1 9.6c-0.2 7.8 4.9 15.7 15.2 21.7 20.2 11.7 52.8 11.7 72.9 0 10-5.8 15-13.5 15-21.1v-11.5z"/>
	<g class="st9">
		<path class="st10" d="m250.3 126.8c20.2 11.7 20.3 30.6 0.2 42.2-20.1 11.7-52.7 11.7-72.9 0s-20.3-30.6-0.2-42.2c20-11.6 52.7-11.6 72.9 0z"/>
	</g>
	<g class="st11">
		<path class="st0" d="m250.3 11.6c20.2 11.7 20.3 30.6 0.2 42.2-20.1 11.7-52.7 11.7-72.9 0s-20.3-30.6-0.2-42.2c20-11.7 52.7-11.7 72.9 0z"/>
	</g>
	<g class="st12">
		<path class="st0" d="m244.7 14.8c17.1 9.9 17.2 25.9 0.2 35.8s-44.6 9.9-61.8 0c-17.1-9.9-17.1-25.9-0.1-35.8 16.9-9.8 44.6-9.8 61.7 0z"/>
	</g>
	<g class="st9">
			<g class="st3">
					<path class="st0" d="m279.1 107.8l-4.5-2.9c1.3-0.8 2.3-2.9 2.3-4.5l4.5 2.9c0.1 1.7-1 3.7-2.3 4.5z"/>
					<polygon class="st0" points="250.7 135.5 246.2 132.5 246.1 123.4 250.6 126.3"/>
					<polygon class="st0" points="250.6 126.3 246.1 123.4 274.6 104.9 279.1 107.8"/>
					<polygon class="st0" points="281.5 103.3 277 100.4 276.8 52.1 281.3 55"/>
					<path class="st0" d="m285 33.9l4.5 2.9c-1-0.6-2.4-0.6-3.9 0.4l-4.5-2.9c1.6-0.9 2.9-1 3.9-0.4z"/>
					<polygon class="st0" points="250.5 69.3 246 66.3 246 57.2 250.5 60.1"/>
					<polygon class="st0" points="250.5 60.1 246 57.2 281.2 34.3 285.7 37.3"/>
			</g>
	</g>
	<path class="st13" d="m257.6 46.2c0-6.5-4.3-12.9-12.9-17.9-17.1-9.9-44.8-9.9-61.7 0-8.5 4.9-12.7 11.4-12.7 17.9v99.3c0 6.5 4.3 12.9 12.9 17.9 17.1 9.9 44.8 9.9 61.8 0 8.5-4.9 12.7-11.4 12.7-17.9v-99.3z"/>
	<path class="st14" d="m257.6 46.2v-20.9h-19.1c-14.8-5.9-34.5-5.9-49.3 0h-18.9v20.9c0 6.5 4.3 12.9 12.9 17.9 17.1 9.9 44.8 9.9 61.8 0 8.4-5 12.6-11.5 12.6-17.9z"/>
	<path class="st15" d="m250.3 11.6c-20.2-11.7-52.8-11.7-72.9 0s-20 30.6 0.2 42.2c20.2 11.7 52.8 11.7 72.9 0 20.1-11.6 20-30.5-0.2-42.2zm-5.4 39c-17 9.9-44.6 9.9-61.8 0-17.1-9.9-17.1-25.9-0.1-35.8s44.6-9.9 61.7 0 17.2 25.9 0.2 35.8z"/>
		<path class="st16" d="m244.7 7.4c17.1 9.9 17.2 25.9 0.2 35.8s-44.6 9.9-61.8 0c-17.1-9.9-17.1-25.9-0.1-35.8 16.9-9.9 44.6-9.9 61.7 0z"/>
		<radialGradient id="h" cx="185.83" cy="90.084" r="7.0335" gradientUnits="userSpaceOnUse">
			<stop stop-color="#FFC50A" offset="0"/>
			<stop stop-color="#FFC40C" offset=".519"/>
			<stop stop-color="#FEC113" offset=".706"/>
			<stop stop-color="#FDBC1E" offset=".8392"/>
			<stop stop-color="#FCB52F" offset=".9462"/>
			<stop stop-color="#FBB03B" offset="1"/>
		</radialGradient>
		<circle class="st17" cx="185.8" cy="90.1" r="7"/>
			<ellipse class="st18" transform="matrix(.7818 -.6235 .6235 .7818 -13.389 136.57)" cx="188.4" cy="87.4" rx="2.3" ry="2.9"/>
		<radialGradient id="g" cx="210.54" cy="104.89" r="5.3933" gradientUnits="userSpaceOnUse">
			<stop stop-color="#FFC50A" offset="0"/>
			<stop stop-color="#FFC40C" offset=".519"/>
			<stop stop-color="#FEC113" offset=".706"/>
			<stop stop-color="#FDBC1E" offset=".8392"/>
			<stop stop-color="#FCB52F" offset=".9462"/>
			<stop stop-color="#FBB03B" offset="1"/>
		</radialGradient>
		<circle class="st19" cx="210.5" cy="104.9" r="5.4"/>
			<ellipse class="st18" transform="matrix(.7818 -.6235 .6235 .7818 -17.752 154.97)" cx="212.5" cy="102.8" rx="1.8" ry="2.2"/>
		<radialGradient id="f" cx="231.37" cy="94.028" r="3.0895" gradientUnits="userSpaceOnUse">
			<stop stop-color="#FFC50A" offset="0"/>
			<stop stop-color="#FFC40C" offset=".519"/>
			<stop stop-color="#FEC113" offset=".706"/>
			<stop stop-color="#FDBC1E" offset=".8392"/>
			<stop stop-color="#FCB52F" offset=".9462"/>
			<stop stop-color="#FBB03B" offset="1"/>
		</radialGradient>
		<circle class="st20" cx="231.4" cy="94" r="3.1"/>
		<ellipse class="st18" transform="matrix(.7818 -.6235 .6235 .7818 -7.1626 165.24)" cx="232.5" cy="92.9" rx="1" ry="1.3"/>
		<radialGradient id="e" cx="218.83" cy="130.92" r="5.3933" gradientUnits="userSpaceOnUse">
			<stop stop-color="#FFC50A" offset="0"/>
			<stop stop-color="#FFC40C" offset=".519"/>
			<stop stop-color="#FEC113" offset=".706"/>
			<stop stop-color="#FDBC1E" offset=".8392"/>
			<stop stop-color="#FCB52F" offset=".9462"/>
			<stop stop-color="#FBB03B" offset="1"/>
		</radialGradient>
		<circle class="st21" cx="218.8" cy="130.9" r="5.4"/>
			<ellipse class="st18" transform="matrix(.7818 -.6235 .6235 .7818 -32.169 165.82)" cx="220.8" cy="128.9" rx="1.8" ry="2.2"/>
		<radialGradient id="d" cx="209.79" cy="77.714" r="3.5276" gradientUnits="userSpaceOnUse">
			<stop stop-color="#FFC50A" offset="0"/>
			<stop stop-color="#FFC40C" offset=".519"/>
			<stop stop-color="#FEC113" offset=".706"/>
			<stop stop-color="#FDBC1E" offset=".8392"/>
			<stop stop-color="#FCB52F" offset=".9462"/>
			<stop stop-color="#FBB03B" offset="1"/>
		</radialGradient>
		<circle class="st22" cx="209.8" cy="77.7" r="3.5"/>
			<ellipse class="st18" transform="matrix(.7818 -.6235 .6235 .7818 -1.5617 148.29)" cx="211.1" cy="76.4" rx="1.2" ry="1.4"/>
		<radialGradient id="c" cx="189.89" cy="136.44" r="3.8787" gradientUnits="userSpaceOnUse">
			<stop stop-color="#FFC50A" offset="0"/>
			<stop stop-color="#FFC40C" offset=".519"/>
			<stop stop-color="#FEC113" offset=".706"/>
			<stop stop-color="#FDBC1E" offset=".8392"/>
			<stop stop-color="#FCB52F" offset=".9462"/>
			<stop stop-color="#FBB03B" offset="1"/>
		</radialGradient>
		<circle class="st23" cx="189.9" cy="136.4" r="3.9"/>
			<ellipse class="st18" transform="matrix(.7818 -.6235 .6235 .7818 -42.41 148.75)" cx="191.3" cy="135" rx="1.3" ry="1.6"/>
		<radialGradient id="b" cx="239.47" cy="138.26" r="4.8372" gradientUnits="userSpaceOnUse">
			<stop stop-color="#FFC50A" offset="0"/>
			<stop stop-color="#FFC40C" offset=".519"/>
			<stop stop-color="#FEC113" offset=".706"/>
			<stop stop-color="#FDBC1E" offset=".8392"/>
			<stop stop-color="#FCB52F" offset=".9462"/>
			<stop stop-color="#FBB03B" offset="1"/>
		</radialGradient>
		<circle class="st24" cx="239.5" cy="138.3" r="4.8"/>
			<ellipse class="st18" transform="matrix(.7818 -.6235 .6235 .7818 -32.424 180.2)" cx="241.3" cy="136.4" rx="1.6" ry="2"/>
		<radialGradient id="a" cx="246.14" cy="79.172" r="3.8787" gradientUnits="userSpaceOnUse">
			<stop stop-color="#FFC50A" offset="0"/>
			<stop stop-color="#FFC40C" offset=".519"/>
			<stop stop-color="#FEC113" offset=".706"/>
			<stop stop-color="#FDBC1E" offset=".8392"/>
			<stop stop-color="#FCB52F" offset=".9462"/>
			<stop stop-color="#FBB03B" offset="1"/>
		</radialGradient>
		<circle class="st25" cx="246.1" cy="79.2" r="3.9"/>
			<ellipse class="st18" transform="matrix(.7818 -.6235 .6235 .7818 5.5739 171.33)" cx="247.6" cy="77.7" rx="1.3" ry="1.6"/>
	<path class="st26" d="m265.5 32.7c0 7.6-4.9 15.3-15 21.1-20.1 11.7-52.7 11.7-72.9 0-10.5-6.1-15.5-14.1-15.2-22v0.9 125.7c0 7.6 5.1 15.3 15.2 21.1 20.2 11.7 52.8 11.7 72.9 0 10-5.8 15-13.5 15-21.1v-125.7z"/>
		<path class="st18" d="m218.8 62.5v125.7c11.6-0.6 22.8-3.5 31.7-8.6 0.1 0 0.1-0.1 0.2-0.1v-125.8c-0.1 0-0.1 0.1-0.2 0.1-8.8 5.2-20.1 8-31.7 8.7z"/>
</svg>
