<?xml version="1.0" encoding="UTF-8"?>
<svg enable-background="new 0 0 427.8 298.2" version="1.1" viewBox="0 0 427.8 298.2" xml:space="preserve" xmlns="http://www.w3.org/2000/svg">
<style type="text/css">
	.st0{fill:#FFFFFF;}
	.st1{fill:#7CAF01;}
	.st2{fill:#DEDD4A;}
	.st3{fill:#3C5177;}
	.st4{enable-background:new    ;}
	.st5{fill:#50659D;}
	.st6{fill:#455A89;}
	.st7{opacity:0.6;fill:#34B3F5;}
	.st8{opacity:5.000000e-02;}
	.st9{opacity:0.2;}
	.st10{fill:#34B3F5;}
	.st11{opacity:0.1;}
	.st12{opacity:0.5;}
	.st13{fill:#FFC50A;}
	.st14{fill:#EAE4C5;}
	.st15{opacity:0.4;fill:#34B3F5;}
	.st16{fill:#FFF9E9;}
	.st17{opacity:0.4;fill:url(#h);}
	.st18{opacity:0.4;fill:#FFFFFF;}
	.st19{opacity:0.4;fill:url(#g);}
	.st20{opacity:0.4;fill:url(#f);}
	.st21{opacity:0.4;fill:url(#e);}
	.st22{opacity:0.4;fill:url(#d);}
	.st23{opacity:0.4;fill:url(#c);}
	.st24{opacity:0.4;fill:url(#b);}
	.st25{opacity:0.4;fill:url(#a);}
	.st26{opacity:0.2;fill:#34B3F5;}
	.st27{opacity:0.4;fill:url(#SVGID_9_);}
	.st28{opacity:0.4;fill:url(#SVGID_10_);}
	.st29{opacity:0.4;fill:url(#SVGID_11_);}
	.st30{opacity:0.4;fill:url(#SVGID_12_);}
	.st31{opacity:0.4;fill:url(#SVGID_13_);}
	.st32{opacity:0.4;fill:url(#SVGID_14_);}
	.st33{opacity:0.4;fill:url(#SVGID_15_);}
	.st34{opacity:0.4;fill:url(#SVGID_16_);}
</style>
<path class="st0" d="M414.4,112.6c11.2,6.5,11.3,17,0.1,23.5L158.8,284.6c-11.1,6.5-29.3,6.5-40.5,0L13.4,224.1  c-11.2-6.5-11.3-17-0.1-23.5L269,52.1c11.1-6.5,29.3-6.5,40.5,0L414.4,112.6z"/>
	<path class="st1" d="m301.9 117.2c-7.9-4.5-11.8-10.8-10.9-17.1l40.5 23.4c-10.9 0.5-21.8-1.7-29.6-6.3z"/>
	<polygon class="st2" points="120.1 250.8 95.6 265 92.8 263.4 114.6 250.8 71.9 226.2 50.2 238.8 47.4 237.2 71.9 223"/>
	<path class="st2" d="m140.8 238.9l15.5 8.9-45 26.2-2.9-1.7 42.1-24.5-73.5-42.4-42.1 24.5-2.9-1.7 45-26.2 15.5 8.9c13.4-1.3 27 1.2 36.7 6.8 9.5 5.5 13.8 13.4 11.6 21.2zm-44.5-25.7l40.5 23.4c0.9-6.3-3.1-12.6-10.9-17.1-7.9-4.6-18.7-6.8-29.6-6.3"/>
			<path class="st2" d="m393 106.8l2.9 1.7-45 26.2-15.5-8.9c-13.4 1.3-27-1.2-36.7-6.8s-14-13.5-11.8-21.2l-15.5-8.9 45-26.2 2.9 1.7-42.1 24.5 73.5 42.4 42.3-24.5zm-91.1 10.4c7.9 4.5 18.7 6.8 29.6 6.3l-40.5-23.4c-0.9 6.3 3 12.6 10.9 17.1"/>
			<path class="st2" d="m247.3 148.9c-18-10.4-47-10.7-65.5-0.8l-2.5-1.4c19.9-10.7 51.1-10.4 70.5 0.8s20 29.3 1.7 40.8l-2.5-1.4c16.9-10.8 16.4-27.5-1.7-38z"/>
			<path class="st1" d="m180.5 187.8c-18-10.4-18.6-27.2-1.6-38l67.2 38.8c-18.6 9.9-47.6 9.6-65.6-0.8z"/>
		<path class="st1" d="m125.9 219.5c7.9 4.5 11.8 10.8 10.9 17.1l-40.5-23.4c10.9-0.5 21.7 1.7 29.6 6.3z"/>
			<path class="st1" d="m414.3 112.6l-104.8-60.5c-11.2-6.5-29.3-6.5-40.5 0l-255.7 148.5c-11.1 6.5-11.1 17 0.1 23.5l104.9 60.6c11.2 6.5 29.3 6.5 40.5 0l255.7-148.6c11.1-6.5 11.1-17-0.2-23.5zm-79.4-39.3l-21.7 12.6 42.7 24.6 21.7-12.6 2.8 1.6-24.5 14.2-48.2-27.8 24.5-14.2 2.7 1.6m-242.1 190.1l21.7-12.6-42.7-24.6-21.7 12.6-2.8-1.6 24.6-14.2 48.2 27.8-24.5 14.2-2.8-1.6m18.4 10.6l-2.9-1.7 42.1-24.5-73.5-42.4-42.1 24.5-2.9-1.7 45-26.2 15.5 8.9c13.4-1.3 27 1.2 36.7 6.8s14 13.5 11.8 21.2l15.5 8.9-45.2 26.2m167.2-66.7l-29.9-17.3c-19.9 10.7-51.1 10.4-70.5-0.8s-20-29.3-1.7-40.8l-29.9-17.3 2.9-1.7 29.9 17.3c19.9-10.7 51.1-10.4 70.5 0.8s20 29.3 1.7 40.8l29.9 17.3-2.9 1.7m72.5-72.6l-15.5-8.9c-13.4 1.3-27-1.2-36.7-6.8s-14-13.5-11.8-21.2l-15.5-8.9 45-26.2 2.9 1.7-42.1 24.5 73.5 42.4 42.1-24.5 2.9 1.7-44.8 26.2"/>
			<polygon class="st2" points="380.4 99.5 355.9 113.7 307.7 85.9 332.2 71.7 334.9 73.3 313.2 85.9 355.9 110.5 377.6 97.9"/>
			<path class="st1" d="m247.3 148.9c18 10.4 18.6 27.2 1.6 38l-67.2-38.8c18.6-9.9 47.6-9.6 65.6 0.8z"/>
			<path class="st2" d="m177.8 147.5c0.5-0.3 1-0.6 1.5-0.8l-29.9-17.3-2.9 1.7 29.9 17.3c0.4-0.3 0.9-0.6 1.4-0.9z"/>
			<path class="st2" d="m281.3 205.6l-29.9-17.3-2.5-1.4c-0.5 0.3-0.9 0.6-1.4 0.9s-1 0.6-1.5 0.8c-18.5 9.9-47.5 9.6-65.6-0.8-18-10.4-18.6-27.2-1.6-38l67.2 38.8c0.5-0.3 1-0.5 1.5-0.8s1-0.6 1.4-0.9l-67.2-38.8-2.5-1.4c-0.5 0.3-1 0.5-1.5 0.8s-1 0.6-1.4 0.9c-18.3 11.5-17.8 29.6 1.7 40.8s50.6 11.5 70.5 0.8l29.9 17.3 2.9-1.7z"/>
<path class="st3" d="m427.8 117.6c0.2-4.5-2.7-9-8.6-12.5l-16.8-9.7-73.8-42.6-16.8-9.7c-11.5-6.6-30-6.6-41.5 0l-261.7 152.2c-5.7 3.3-8.5 7.6-8.5 12v11.9c0 4.4 2.9 8.8 8.7 12.1l107.4 62c11.5 6.6 30 6.6 41.5 0l261.7-152.1c5.7-3.3 8.5-7.6 8.5-11.9v-11.9c-0.1 0-0.1 0.1-0.1 0.2zm-303.5 157.8l-105.5-60.9c-3-1.7-4.7-3.9-5.3-6.1 0.6-2.2 2.3-4.3 5.2-5.9l258.5-150.3c7.2-4.2 19-4.2 26.3 0l13.2 7.6-0.4 0.2c-1.9 1.1-2.8 2.5-2.8 3.9v3.2c0 1.4 0.9 2.9 2.8 3.9l60.2 34.8c3.7 2.2 9.8 2.2 13.5 0l3.1-1.8 15.9 9.2c3 1.7 4.7 3.9 5.3 6.1-0.6 2.2-2.3 4.3-5.2 5.9l-258.5 150.2c-7.2 4.2-19 4.2-26.3 0zm191.3-208c-0.1 0-0.1-0.1-0.2-0.1 0.1 0 0.2 0.1 0.2 0.1zm-0.5-0.4l-0.2-0.2 0.2 0.2zm-0.5-0.5l-0.2-0.2 0.2 0.2zm-0.4-0.5c-0.1-0.1-0.1-0.1-0.1-0.2 0 0.1 0 0.1 0.1 0.2zm-0.3-0.5c0-0.1-0.1-0.2-0.1-0.2s0 0.1 0.1 0.2zm-0.2-0.5c0-0.1 0-0.2-0.1-0.2 0 0 0 0.1 0.1 0.2zm-0.2-0.6v-0.2 0.2z"/>
<g class="st4">
		<path class="st3" d="m365.1 83.4c0.8 0.4 0.8 1.2 0 1.6-0.8 0.5-2.1 0.5-2.8 0l-15.6-9c-0.8-0.4-0.8-1.2 0-1.6s2-0.4 2.8 0l15.6 9z"/>
		<path class="st3" d="m373.4 87.3c1.2 0.7 1.2 1.8 0 2.5s-3.1 0.7-4.3 0-1.2-1.8 0-2.5 3.1-0.7 4.3 0z"/>
		<path class="st5" d="m419.1 105.2c11.5 6.6 11.5 17.4 0.1 24l-261.7 152.1c-11.4 6.6-30 6.6-41.5 0l-107.4-62c-11.5-6.6-11.5-17.4-0.1-24l261.8-152.1c11.4-6.6 30-6.6 41.5 0l16.8 9.7 73.8 42.6 16.7 9.7zm-268.5 170.2l258.5-150.2c7.2-4.2 7.2-11-0.1-15.2l-15.9-9.2-3.1 1.8c-3.7 2.2-9.8 2.2-13.5 0l-60.2-34.8c-3.7-2.2-3.8-5.7 0-7.8l3.1-1.8-15.9-9.2c-7.3-4.2-19.1-4.2-26.3 0l-258.5 150.3c-7.2 4.2-7.2 11 0.1 15.2l105.6 60.9c7.2 4.2 19 4.2 26.2 0m198.9-201c-0.8-0.4-2.1-0.5-2.8 0-0.8 0.5-0.8 1.2 0 1.6l15.6 9c0.8 0.4 2.1 0.4 2.8 0 0.8-0.4 0.8-1.2 0-1.6l-15.6-9m23.9 12.9c-1.2-0.7-3.1-0.7-4.2 0-1.2 0.7-1.2 1.8 0 2.5s3.1 0.7 4.3 0c1.1-0.7 1.1-1.8-0.1-2.5"/>
			<path class="st6" d="m303.5 49v3.2c-7.3-4.2-19.1-4.2-26.3 0v-3.2c7.2-4.2 19-4.2 26.3 0z"/>
			<polygon class="st6" points="319.4 58.2 319.4 61.4 303.5 52.2 303.5 49"/>
			<path class="st6" d="m313.4 67.1v-3.2c0 1.4 0.9 2.9 2.8 3.9v3.2c-1.8-1.1-2.8-2.5-2.8-3.9z"/>
			<polygon class="st6" points="393.2 100.8 393.1 103.9 390 105.8 390 102.6"/>
			<polygon class="st6" points="376.5 102.6 376.5 105.8 316.3 71 316.3 67.8"/>
			<path class="st6" d="m390 102.6v3.2c-3.7 2.2-9.8 2.2-13.5 0v-3.2c3.8 2.2 9.8 2.2 13.5 0z"/>
			<polygon class="st6" points="409.1 110 409 113.1 393.1 103.9 393.2 100.8"/>
			<path class="st6" d="m414.5 117.6v3.2c0-2.8-1.8-5.6-5.5-7.7v-3.2c3.7 2.2 5.6 5 5.5 7.7z"/>
			<path class="st6" d="m13.2 210v-3.2c0-2.7 1.8-5.5 5.4-7.6v3.2c-3.6 2.1-5.4 4.8-5.4 7.6z"/>
			<polygon class="st6" points="277.2 49 277.2 52.2 18.6 202.4 18.7 199.3"/>
			<path class="st5" d="m427.8 117.3v11.9c0 4.3-2.9 8.6-8.5 11.9v-11.9c5.6-3.3 8.5-7.6 8.5-11.9z"/>
			<path class="st3" d="m0 219.1v-11.9c0 4.4 2.9 8.8 8.7 12.1v11.9c-5.8-3.3-8.7-7.7-8.7-12.1z"/>
			<polygon class="st6" points="419.3 129.2 419.2 141.1 157.5 293.2 157.5 281.3"/>
			<polygon class="st3" points="116.1 281.3 116 293.2 8.7 231.2 8.7 219.3"/>
			<path class="st3" d="m157.5 281.3v11.9c-11.4 6.6-30 6.6-41.5 0v-11.9c11.6 6.6 30.1 6.6 41.5 0z"/>
</g>
<g class="st4">
		<path class="st5" d="m378.5 158.8v4.8c0 0.5-0.3 1-1 1.4v-4.8c0.7-0.4 1-0.9 1-1.4z"/>
		<polygon class="st6" points="377.5 160.2 377.5 165 349.3 181.4 349.3 176.6"/>
		<polygon class="st3" points="344.6 176.6 344.5 181.4 343.8 180.9 343.9 176.2"/>
		<path class="st3" d="m349.3 176.6v4.8c-1.3 0.8-3.5 0.8-4.8 0v-4.8c1.4 0.7 3.5 0.7 4.8 0z"/>
		<path class="st5" d="m377.5 157.4c1.3 0.8 1.3 2 0 2.8l-28.2 16.4c-1.3 0.8-3.5 0.8-4.8 0l-0.7-0.4 32.9-19.1 0.8 0.3z"/>
</g>
	<path class="st7" d="m296.9 44.4c0-2.1-0.7-3.6-1.7-4.3l-4.9-3.2c-1.1-0.7-2.6-0.6-4.2 0.5l-38.4 24.9v10l4.9 3.2 28.7-18.6 0.1 52.5c0 1.8-1.1 4-2.5 4.9l-31.1 20.2v10l4.9 3.2 38.4-24.9c3.3-2.1 5.9-7.3 5.9-11.5l-0.1-66.9z"/>
	<path class="st7" d="m269 35.7c0-8.3-5.6-16.7-16.6-23-22-12.7-57.6-12.7-79.5 0-10.9 6.4-16.4 14.7-16.3 23v137c0 8.3 5.6 16.7 16.6 23 22 12.7 57.6 12.7 79.5 0 10.9-6.4 16.4-14.7 16.3-23v-137z"/>
	<path class="st8" d="m269 160.3c-0.5-8-6-16-16.6-22.1-22-12.7-57.6-12.7-79.5 0-10.5 6.1-15.9 14.1-16.3 22.1v0.4 1 10.4c-0.2 8.5 5.3 17.1 16.6 23.6 22 12.7 57.6 12.7 79.5 0 10.9-6.4 16.4-14.7 16.3-23v-12.4z"/>
	<g class="st9">
		<path class="st10" d="m252.4 138.2c22 12.7 22.1 33.3 0.3 46-21.9 12.7-57.4 12.7-79.5 0-22-12.7-22.1-33.3-0.3-46 21.9-12.7 57.5-12.7 79.5 0z"/>
	</g>
	<g class="st11">
		<path class="st0" d="m252.4 12.6c22 12.7 22.1 33.3 0.3 46-21.9 12.7-57.4 12.7-79.5 0-22-12.7-22.1-33.3-0.3-46 21.9-12.7 57.5-12.7 79.5 0z"/>
	</g>
	<g class="st12">
		<path class="st0" d="m246.3 16.2c18.6 10.8 18.7 28.2 0.2 39s-48.7 10.8-67.3 0-18.7-28.2-0.2-39 48.7-10.8 67.3 0z"/>
	</g>
	<g class="st9">
			<g class="st4">
					<path class="st0" d="m283.8 117.5l-4.9-3.2c1.4-0.9 2.5-3.1 2.5-4.9l4.9 3.2c0.1 1.8-1.1 4-2.5 4.9z"/>
					<polygon class="st0" points="252.8 147.6 247.9 144.4 247.9 134.5 252.8 137.7"/>
					<polygon class="st0" points="252.8 137.7 247.9 134.5 278.9 114.3 283.8 117.5"/>
					<polygon class="st0" points="286.4 112.6 281.5 109.4 281.3 56.8 286.2 60"/>
					<path class="st0" d="m290.3 37l4.9 3.2c-1.1-0.7-2.6-0.6-4.2 0.5l-4.9-3.2c1.6-1.1 3.1-1.2 4.2-0.5z"/>
					<polygon class="st0" points="252.6 75.5 247.7 72.3 247.7 62.3 252.6 65.5"/>
					<polygon class="st0" points="252.6 65.5 247.7 62.3 286.1 37.4 291 40.6"/>
			</g>
	</g>
	<path class="st13" d="m260.4 50.3c0-7.1-4.7-14.1-14-19.5-18.6-10.8-48.8-10.8-67.3 0-9.3 5.4-13.9 12.4-13.8 19.5v108.2c0 7.1 4.7 14.1 14 19.5 18.6 10.8 48.8 10.8 67.3 0 9.3-5.4 13.9-12.4 13.8-19.5v-108.2z"/>
	<path class="st14" d="m260.4 50.3v-22.7h-20.9c-16.2-6.4-37.6-6.4-53.7 0h-20.6v22.7c0 7.1 4.7 14.1 14 19.5 18.6 10.8 48.8 10.8 67.3 0 9.3-5.4 13.9-12.4 13.9-19.5z"/>
	<path class="st15" d="m252.4 12.6c-22-12.7-57.6-12.7-79.5 0s-21.8 33.3 0.3 46c22 12.7 57.6 12.7 79.5 0 21.8-12.6 21.7-33.3-0.3-46zm-5.9 42.5c-18.5 10.8-48.7 10.8-67.3 0s-18.7-28.2-0.2-39 48.7-10.8 67.3 0c18.7 10.8 18.7 28.3 0.2 39z"/>
		<path class="st16" d="m246.3 8.1c18.6 10.8 18.7 28.2 0.2 39s-48.7 10.8-67.3 0-18.7-28.2-0.2-39 48.7-10.8 67.3 0z"/>
		<radialGradient id="h" cx="182.15" cy="98.172" r="7.665" gradientUnits="userSpaceOnUse">
			<stop stop-color="#FFC50A" offset="0"/>
			<stop stop-color="#FFC40C" offset=".519"/>
			<stop stop-color="#FEC113" offset=".706"/>
			<stop stop-color="#FDBC1E" offset=".8392"/>
			<stop stop-color="#FCB52F" offset=".9462"/>
			<stop stop-color="#FBB03B" offset="1"/>
		</radialGradient>
		<circle class="st17" cx="182.1" cy="98.2" r="7.7"/>
			<ellipse class="st18" transform="matrix(.7818 -.6235 .6235 .7818 -19.034 136.14)" cx="185" cy="95.3" rx="2.5" ry="3.1"/>
		<radialGradient id="g" cx="209.08" cy="114.31" r="5.8775" gradientUnits="userSpaceOnUse">
			<stop stop-color="#FFC50A" offset="0"/>
			<stop stop-color="#FFC40C" offset=".519"/>
			<stop stop-color="#FEC113" offset=".706"/>
			<stop stop-color="#FDBC1E" offset=".8392"/>
			<stop stop-color="#FCB52F" offset=".9462"/>
			<stop stop-color="#FBB03B" offset="1"/>
		</radialGradient>
		<circle class="st19" cx="209.1" cy="114.3" r="5.9"/>
			<ellipse class="st18" transform="matrix(.7818 -.6235 .6235 .7818 -23.789 156.18)" cx="211.3" cy="112.1" rx="1.9" ry="2.4"/>
		<radialGradient id="f" cx="231.78" cy="102.47" r="3.3668" gradientUnits="userSpaceOnUse">
			<stop stop-color="#FFC50A" offset="0"/>
			<stop stop-color="#FFC40C" offset=".519"/>
			<stop stop-color="#FEC113" offset=".706"/>
			<stop stop-color="#FDBC1E" offset=".8392"/>
			<stop stop-color="#FCB52F" offset=".9462"/>
			<stop stop-color="#FBB03B" offset="1"/>
		</radialGradient>
		<circle class="st20" cx="231.8" cy="102.5" r="3.4"/>
			<ellipse class="st18" transform="matrix(.7818 -.6235 .6235 .7818 -12.249 167.38)" cx="233" cy="101.2" rx="1.1" ry="1.4"/>
		<radialGradient id="e" cx="218.12" cy="142.67" r="5.8775" gradientUnits="userSpaceOnUse">
			<stop stop-color="#FFC50A" offset="0"/>
			<stop stop-color="#FFC40C" offset=".519"/>
			<stop stop-color="#FEC113" offset=".706"/>
			<stop stop-color="#FDBC1E" offset=".8392"/>
			<stop stop-color="#FCB52F" offset=".9462"/>
			<stop stop-color="#FBB03B" offset="1"/>
		</radialGradient>
		<circle class="st21" cx="218.1" cy="142.7" r="5.9"/>
			<ellipse class="st18" transform="matrix(.7818 -.6235 .6235 .7818 -39.501 168.01)" cx="220.3" cy="140.4" rx="1.9" ry="2.4"/>
		<radialGradient id="d" cx="208.26" cy="84.692" r="3.8443" gradientUnits="userSpaceOnUse">
			<stop stop-color="#FFC50A" offset="0"/>
			<stop stop-color="#FFC40C" offset=".519"/>
			<stop stop-color="#FEC113" offset=".706"/>
			<stop stop-color="#FDBC1E" offset=".8392"/>
			<stop stop-color="#FCB52F" offset=".9462"/>
			<stop stop-color="#FBB03B" offset="1"/>
		</radialGradient>
		<circle class="st22" cx="208.3" cy="84.7" r="3.8"/>
			<ellipse class="st18" transform="matrix(.7818 -.6235 .6235 .7818 -6.1454 148.91)" cx="209.7" cy="83.2" rx="1.3" ry="1.6"/>
		<radialGradient id="c" cx="186.57" cy="148.69" r="4.2269" gradientUnits="userSpaceOnUse">
			<stop stop-color="#FFC50A" offset="0"/>
			<stop stop-color="#FFC40C" offset=".519"/>
			<stop stop-color="#FEC113" offset=".706"/>
			<stop stop-color="#FDBC1E" offset=".8392"/>
			<stop stop-color="#FCB52F" offset=".9462"/>
			<stop stop-color="#FBB03B" offset="1"/>
		</radialGradient>
		<circle class="st23" cx="186.6" cy="148.7" r="4.2"/>
			<ellipse class="st18" transform="matrix(.7818 -.6235 .6235 .7818 -50.661 149.4)" cx="188.1" cy="147.1" rx="1.4" ry="1.7"/>
		<radialGradient id="b" cx="240.6" cy="150.68" r="5.2715" gradientUnits="userSpaceOnUse">
			<stop stop-color="#FFC50A" offset="0"/>
			<stop stop-color="#FFC40C" offset=".519"/>
			<stop stop-color="#FEC113" offset=".706"/>
			<stop stop-color="#FDBC1E" offset=".8392"/>
			<stop stop-color="#FCB52F" offset=".9462"/>
			<stop stop-color="#FBB03B" offset="1"/>
		</radialGradient>
		<circle class="st24" cx="240.6" cy="150.7" r="5.3"/>
			<ellipse class="st18" transform="matrix(.7818 -.6235 .6235 .7818 -39.778 183.68)" cx="242.6" cy="148.7" rx="1.7" ry="2.2"/>
		<radialGradient id="a" cx="247.88" cy="86.28" r="4.2269" gradientUnits="userSpaceOnUse">
			<stop stop-color="#FFC50A" offset="0"/>
			<stop stop-color="#FFC40C" offset=".519"/>
			<stop stop-color="#FEC113" offset=".706"/>
			<stop stop-color="#FDBC1E" offset=".8392"/>
			<stop stop-color="#FCB52F" offset=".9462"/>
			<stop stop-color="#FBB03B" offset="1"/>
		</radialGradient>
		<circle class="st25" cx="247.9" cy="86.3" r="4.2"/>
			<ellipse class="st18" transform="matrix(.7818 -.6235 .6235 .7818 1.6308 174.01)" cx="249.5" cy="84.7" rx="1.4" ry="1.7"/>
	<path class="st26" d="m269 35.7c0 8.3-5.4 16.7-16.3 23-21.9 12.7-57.4 12.7-79.5 0-11.4-6.6-16.9-15.3-16.5-24v1 137c0 8.3 5.6 16.7 16.6 23 22 12.7 57.6 12.7 79.5 0 10.9-6.4 16.4-14.7 16.3-23l-0.1-137z"/>
		<path class="st18" d="m218.1 68.1v137c12.6-0.7 24.9-3.8 34.5-9.4 0.1 0 0.1-0.1 0.2-0.1v-137c-0.1 0-0.1 0.1-0.2 0.1-9.6 5.6-21.9 8.7-34.5 9.4z"/>
</svg>
